<svg xmlns="http://www.w3.org/2000/svg" xmlns:xlink="http://www.w3.org/1999/xlink" width="500" zoomAndPan="magnify" viewBox="0 0 375 374.999991" height="500" preserveAspectRatio="xMidYMid meet" version="1.0"><defs><g/></defs><g fill="#53d480" fill-opacity="1"><g transform="translate(25.880831, 263.9955)"><g><path d="M 144.515625 -184.09375 L 144.515625 -164.375 L 115.859375 -164.375 L 115.859375 -46.953125 C 115.859375 -31.867188 111.234375 -19.722656 101.984375 -10.515625 C 92.734375 -1.316406 80.476562 3.28125 65.21875 3.28125 L 61.9375 3.28125 C 56.675781 3.28125 51.851562 2.929688 47.46875 2.234375 C 43.082031 1.535156 38.585938 0.265625 33.984375 -1.578125 C 29.390625 -3.421875 25.335938 -6.25 21.828125 -10.0625 C 18.316406 -13.875 15.644531 -18.585938 13.8125 -24.203125 L 32.484375 -30.515625 C 33.003906 -28.929688 33.570312 -27.546875 34.1875 -26.359375 C 34.800781 -25.179688 35.832031 -23.929688 37.28125 -22.609375 C 38.726562 -21.296875 40.4375 -20.222656 42.40625 -19.390625 C 44.382812 -18.554688 47.035156 -17.851562 50.359375 -17.28125 C 53.691406 -16.71875 57.550781 -16.4375 61.9375 -16.4375 L 65.21875 -16.4375 C 75.476562 -16.4375 83.191406 -19.21875 88.359375 -24.78125 C 93.535156 -30.351562 96.125 -37.742188 96.125 -46.953125 L 96.125 -164.375 L 50.765625 -164.375 L 50.765625 -184.09375 Z M 144.515625 -184.09375 "/></g></g><g transform="translate(187.497874, 263.9955)"><g><path d="M 11.4375 0 L 28.265625 -184.09375 L 48.53125 -184.09375 L 81 -79.6875 L 113.09375 -184.09375 L 133.34375 -184.09375 L 150.171875 0 L 130.453125 0 L 118.21875 -133.734375 L 85.609375 -27.75 L 76.40625 -27.75 L 43.390625 -134 L 31.171875 0 Z M 11.4375 0 "/></g></g></g></svg>